<?xml version="1.0" standalone="no"?><!DOCTYPE svg PUBLIC "-//W3C//DTD SVG 1.1//EN" "http://www.w3.org/Graphics/SVG/1.1/DTD/svg11.dtd"><svg class="icon" height="512" viewBox="0 0 1024 1024" version="1.1" xmlns="http://www.w3.org/2000/svg"><path d="M512 141.167c204.478 0 370.833 166.356 370.833 370.833S716.478 882.833 512 882.833 141.167 716.478 141.167 512 307.522 141.167 512 141.167M512 67C266.234 67 67 266.234 67 512c0 245.768 199.234 445 445 445 245.768 0 445-199.232 445-445 0-245.766-199.232-445-445-445z" fill="#FBC914" /><path d="M508.116 595.5c-20.481 0-37.083-16.603-37.083-37.083v-222.5c0-20.481 16.603-37.083 37.083-37.083 20.481 0 37.083 16.603 37.083 37.083v222.5c0 20.48-16.602 37.083-37.083 37.083z" fill="#FBC914" /><path d="M767.699 558.416c0 20.481-16.603 37.083-37.083 37.083h-222.5c-20.481 0-37.083-16.603-37.083-37.083 0-20.481 16.603-37.083 37.083-37.083h222.5c20.481 0 37.083 16.603 37.083 37.083z" fill="#FBC914" /></svg>